<svg xmlns="http://www.w3.org/2000/svg" viewBox="0 0 167.52 131.25"><defs><style>.cls-1{fill:#565656;}.cls-2{fill:#4e4e4e;}.cls-3{fill:#484848;}.cls-4,.cls-7{fill:#fff;}.cls-4{opacity:0.4;}.cls-5{fill:#f2f2f2;}.cls-6{fill:#474747;}</style></defs><g id="Layer_2" data-name="Layer 2"><g id="Layer_1-2" data-name="Layer 1"><path class="cls-1" d="M6.12,127.52C2.58,125.34,1.67,121.71,1,118,0,112.85.14,107.62.15,102.4L.27,59.54c1.7-2.27,4.22-1.79,6.49-1.8,15.58-.08,31.15-.05,46.73,0,.46,0,.92.06,1.39.12,10,3.65,20,2.53,30.12.61a27.9,27.9,0,0,1,6.63-.73c22.92,0,45.85,0,68.77,0,2.39,0,5.06-.59,6.88,1.8-.14,19.25.94,38.53-.63,57.76-.32,4-1.4,7.87-5.17,10.26-6.83,2.64-13.95,3-21.18,2.95q-57.08-.12-114.13,0C19.31,130.51,12.57,130.09,6.12,127.52Z"/><path class="cls-2" d="M167.28,59.54H84.54c-1.22-.54-1.75-1.79-2.71-2.6-.31-.17-.59-.34-.9-.5a40.69,40.69,0,0,0-24,.28c-1.11.58-1.7,1.94-3.11,2.06-1.74.88-3.62.75-5.48.75H.27c0-14.9-.95-29.83.62-44.69C1.89,5.34,6.1,1.63,15.58.64A138,138,0,0,1,30.09,0Q85.83,0,141.56,0a70.06,70.06,0,0,1,14.8,1.42c5,1.08,8,4.21,9.43,9a36.09,36.09,0,0,1,1.45,9.93C167.34,33.45,167.28,46.49,167.28,59.54Z"/><path class="cls-3" d="M6.12,127.52c3.3-.55,6.17,1.39,9.38,1.65,3.47.27,6.91.56,10.39.56q57,0,114,0c6.72,0,13.4-.12,19.85-2.38.5-.18,1.18.12,1.77.2-4.43,3.4-9.73,3.57-14.91,3.6-21.73.13-43.46.08-65.19.07-20,0-40,.07-60-.09C16.12,131.1,10.69,131,6.12,127.52Z"/><path class="cls-4" d="M161.33,3.73c-3.3.55-6.16-1.39-9.38-1.65-3.46-.27-6.91-.56-10.39-.56q-57,0-114,0c-6.72,0-13.4.12-19.85,2.38-.5.17-1.18-.12-1.77-.2C10.4.29,15.7.12,20.88.09,42.61,0,64.34,0,86.07,0c20,0,40-.06,60,.1C151.33.15,156.77.3,161.33,3.73Z"/><path class="cls-5" d="M53.81,58.79l.24-4.48a228.56,228.56,0,0,1,29.61,0l.26-.06c1.11,5.33.63,6-4.58,6q-10.56,0-21.14,0c-1.46,0-3,.23-4.26-.83A2.09,2.09,0,0,0,53.81,58.79Z"/><path class="cls-6" d="M53.94,59.45c8.15,0,16.3.06,24.44.07,5.22,0,5.22,0,5.54-5.22,1.45,1.6,1.16,3.41.62,5.25A6.59,6.59,0,0,1,79.72,61H58.24C56.61,61,55,61,53.94,59.45Z"/><path class="cls-5" d="M46.28,32c-6.3-2.55-11.39-4.84-16.64-6.65-3.2-1.11-2.08-2.85-1.52-4.87.73-2.64,2.27-1.52,3.69-.93,6.51,2.74,13,5.59,19.53,8.2C53.46,28.6,54,29.87,54,32s-.59,3.39-2.67,4.23c-6.55,2.65-13,5.48-19.53,8.26-1.58.67-3,1.37-3.65-1.17-.46-1.86-1.76-3.54,1.3-4.62C34.76,36.79,40,34.53,46.28,32Z"/><path class="cls-7" d="M83.66,54.36l-29.61,0c.27-.22.54-.62.82-.62q14,0,28,0C83.15,53.71,83.4,54.13,83.66,54.36Z"/></g></g></svg>